<?xml version="1.0" encoding="UTF-8"?>
<svg id="_レイヤー_1" data-name="レイヤー 1" xmlns="http://www.w3.org/2000/svg" xmlns:xlink="http://www.w3.org/1999/xlink" viewBox="0 0 2600 430">
  <defs>
    <style>
      .cls-1 {
        clip-path: url(#clippath);
      }

      .cls-2 {
        fill: none;
      }

      .cls-2, .cls-3, .cls-4, .cls-5, .cls-6, .cls-7 {
        stroke-width: 0px;
      }

      .cls-3 {
        fill: #174299;
      }

      .cls-4 {
        fill: #fff;
      }

      .cls-5 {
        fill: #0053a6;
      }

      .cls-6 {
        fill: #006fbc;
      }

      .cls-7 {
        fill: #0093dc;
      }
    </style>
    <clipPath id="clippath">
      <rect class="cls-2" x="-4.37" y="229.84" width="670.37" height="186.16"/>
    </clipPath>
  </defs>
  <g>
    <g>
      <path class="cls-3" d="m540.77,75.67s17.87,14.06,21.42,13.57c3.55-.5-3.53.5-3.53.5,0,0,1.61,6.27-10.2,4.34,0,0-22.12-13.45-34.54-9.54l-3.23-2.42-3.33-3.13-7.18.28-2.12,5.34s-7.48,18.49-14.62,24.14c0,0-18.87,24.64-23.01,20.89,0,0,10,4.36,10.59,8.59,0,0,12.04-3.37,17.87.71l12.83-1.81s7.42-12.16,10.81-9.05l9.8-9.24,2.42-1.31,3.79-3.17,4.5-2.92,4.9-2.34,3.39.83,3.39.83,4.62,2.6,3.53,1.79,2.38,2.92,2.36,2.92.54,3.85-.69,4.34-1.15-3.43-1.59-2.06-2.2-1.65-3.11-1.19-1.92.26,3.97,2.7,1.73,3.02-3.81.87-4.88-2.24-4.86,2.64-1.27-1.13-.97-.83-3.99-.4,7.04,5.87-2.56.36-3.85.54-3.85.54-3.53.5-1.94.26-2.24,2.64-2.88.42-10.04,7.6s8.97,7.86,3.55,18.13c0,0-1.13-8.01-2.92-6.78,0,0-6.41-1.37-6.17-4.36,0,0-5.53.12-2.98,6.63,0,0-8.99,15-11.78,16.05,0,0-28.8,2.14-29.26,5.81l-14.42,2.04s-7.22-.28-7.95-3.13c0,0-13.85-17-13.81-14.4l-1.84-3.67-2.34-2.6-2.78,1.05s-12.6,3.43-22.2,2.5l-1.92.26-3.53.5-2.2,2.92-4.44.95-5.63,1.79-6.37,1.23-9.15,2.28-7.2,2.34s-12.76-.14,0,9.15l12.91,7.99,2.2,1.65,2.74,3.21.83,3.47,1.45,3.39s14.48-6.29,13.73,13.75c0,0-3.29-7.06-5.77-6.05l-.28,4.94-.04,1.98-.65,2.38,2.28,2.3s2.88,8.73-2.76,12.8c0,0-2.2-10.81-3.65-9.62,0,0-2.06,6.19-4.9,6.92l-.14-5.55-1.33-2.42-1.51-1.41-1.98-2.34-.4-2.88-.69-2.52-2.1-3.29-2.42-3.27-2.16-1.33-2.52-1.61-1.41,1.51-3.43-1.15-4.25-9.22-.73-2.84-1.79-1.03-10.57-9.94s-6.71-17.36-14.06,2.32l-8.53,11.35s-3.63,8.99-32.89,17.08l-5.73,3.43-5.12.73-24.04,5.71s-11.98-.81-21.56,12.99c-.22.3-.44.63-.65.95-9.68,14.78-11.8,22.95-13.13,27.38,0,0,24.36-3.45,20.37,12.16,0,0-7.82-11.31-17.54-1.43l9.7,6.15s12.36-5.02,15.06,7.02c0,0-10.85-5-12.68.48l-1.11,1.47-2.34,1.96-2.56.36-1.29.18.6,1.88-4.11-1.37-2.28,2.28-3.53.5-6.31-.75-3.25.12-2.52-1.61-2.84-1.55-1.65-2.4-2.38-2.92s-13.27-10.53-7.58-16.58l3.31-2.12,1.43-3.79.28-2.66.36-2.02,5.95-6.39,4.03-3.83,2.76-3.67,2.06-3.89,14.26-23.94s-1.55-1.75,14.16-8.55c0,0,11.27-3.55,23.23-16.05,0,0,15.08-18.17,33.25-16.82l2.48-3.29,1.01-4.36-.5-3.57s-3.97-21.01,3.04-29.2l-.22-1.59-3.65-.44-19.42,1.45s-74.13-1.57-97.26,17.4c0,0-46.58,21.98-60.5,20.69,0,0-68.54-.04-88.36-22.93,0,0,31.4,17.91,66.77,12.91,0,0,46.78-.87,91.17-38.92,0,0,76.02-49.06,135.91-33.74,0,0,20.61-7.26,78.91-3.25,0,0,25.45,6.47,41.42,7.1,0,0,16.17,2.04,22.75-27.77,0,0,2.44-33.53,37-39.16,0,0,31.13-9.48,56.58-8.05,0,0,6.47-.2,9.58,11.64,0,0-44.67,20.77-50.53,20.14,0,0,.85,11.05,8.75,10.83,0,0,17.32,7.24,19.44,5.93,0,0,12.22-.54,16.64-5.08,0,0-4.78,6.8-18.03,9.66l1.77,2.06Z"/>
      <polygon class="cls-3" points="512.85 49.2 515.55 55 514.68 48.93 512.85 49.2"/>
      <polygon class="cls-3" points="514.24 48.99 516.94 54.8 516.07 48.73 514.24 48.99"/>
      <polygon class="cls-3" points="515.08 48.33 517.79 54.14 516.92 48.07 515.08 48.33"/>
      <polygon class="cls-3" points="516.07 48.73 518.77 54.54 517.93 48.47 516.07 48.73"/>
      <polygon class="cls-3" points="516.92 48.07 519.62 53.87 518.75 47.81 516.92 48.07"/>
      <polygon class="cls-3" points="517.85 47.95 520.55 53.75 519.68 47.68 517.85 47.95"/>
      <polygon class="cls-3" points="518.69 47.32 521.4 53.13 520.53 47.06 518.69 47.32"/>
      <polygon class="cls-3" points="520.07 47.12 522.77 52.93 521.9 46.86 520.07 47.12"/>
      <polygon class="cls-3" points="520.89 46.41 523.59 52.22 522.75 46.13 520.89 46.41"/>
      <polygon class="cls-3" points="522.24 46.21 524.95 52.02 524.08 45.95 522.24 46.21"/>
      <polygon class="cls-3" points="523.11 45.59 525.79 51.39 524.95 45.32 523.11 45.59"/>
      <polygon class="cls-3" points="523.9 44.54 526.6 50.35 525.73 44.28 523.9 44.54"/>
      <polygon class="cls-3" points="524.72 43.87 527.43 49.68 526.58 43.61 524.72 43.87"/>
      <polygon class="cls-3" points="525.65 43.73 528.35 49.54 527.49 43.49 525.65 43.73"/>
      <polygon class="cls-3" points="526.66 44.14 529.34 49.94 528.49 43.87 526.66 44.14"/>
      <polygon class="cls-3" points="527.43 42.99 530.13 48.79 529.26 42.72 527.43 42.99"/>
      <polygon class="cls-3" points="528.35 42.86 531.03 48.67 530.19 42.6 528.35 42.86"/>
      <polygon class="cls-3" points="529.18 42.14 531.88 47.95 531.01 41.88 529.18 42.14"/>
      <polygon class="cls-3" points="530.63 42.54 533.33 48.35 532.47 42.28 530.63 42.54"/>
      <polygon class="cls-3" points="531.4 41.33 534.1 47.12 533.23 41.07 531.4 41.33"/>
      <polygon class="cls-3" points="532.93 42.2 535.63 48.03 534.77 41.94 532.93 42.2"/>
      <polygon class="cls-3" points="532.77 41.13 535.47 46.92 534.6 40.87 532.77 41.13"/>
      <polygon class="cls-3" points="537.25 39.54 539.95 45.35 539.08 39.28 537.25 39.54"/>
      <polygon class="cls-3" points="538.01 38.39 540.71 44.2 539.85 38.13 538.01 38.39"/>
      <polygon class="cls-3" points="538.86 37.66 541.56 43.47 540.69 37.4 538.86 37.66"/>
      <polygon class="cls-3" points="539.85 38.13 542.55 43.93 541.7 37.86 539.85 38.13"/>
      <polygon class="cls-3" points="540.63 36.92 543.32 42.72 542.47 36.65 540.63 36.92"/>
      <polygon class="cls-3" points="541.48 36.29 544.18 42.1 543.32 36.03 541.48 36.29"/>
      <polygon class="cls-3" points="542.39 36.17 545.09 41.98 544.22 35.91 542.39 36.17"/>
      <polygon class="cls-3" points="543.25 35.59 545.94 41.41 545.09 35.34 543.25 35.59"/>
      <polygon class="cls-3" points="544.08 34.94 546.8 40.75 545.94 34.66 544.08 34.94"/>
      <polygon class="cls-3" points="543.84 35.95 546.54 41.78 545.67 35.71 543.84 35.95"/>
      <polygon class="cls-3" points="545.09 35.34 547.79 41.15 546.93 35.06 545.09 35.34"/>
      <polygon class="cls-3" points="545.86 34.17 548.56 39.98 547.69 33.91 545.86 34.17"/>
      <polygon class="cls-3" points="546.7 33.47 549.41 39.26 548.54 33.21 546.7 33.47"/>
      <polygon class="cls-3" points="548.05 33.87 550.76 39.68 549.89 33.61 548.05 33.87"/>
      <polygon class="cls-3" points="546.93 35.06 549.63 40.89 548.76 34.8 546.93 35.06"/>
      <polygon class="cls-3" points="547.05 33.41 549.75 39.21 548.88 33.15 547.05 33.41"/>
      <polygon class="cls-3" points="548.74 32.16 551.46 37.98 550.6 31.92 548.74 32.16"/>
      <polygon class="cls-3" points="549.75 32.52 552.45 38.35 551.58 32.26 549.75 32.52"/>
      <polygon class="cls-3" points="550.68 32.4 553.36 38.21 552.49 32.14 550.68 32.4"/>
      <polygon class="cls-3" points="551.5 31.77 554.22 37.58 553.36 31.51 551.5 31.77"/>
      <polygon class="cls-3" points="552.43 31.65 555.13 37.46 554.27 31.39 552.43 31.65"/>
      <polygon class="cls-3" points="550.98 31.83 553.68 37.66 552.83 31.59 550.98 31.83"/>
      <polygon class="cls-3" points="548.62 33.79 551.32 39.6 550.45 33.53 548.62 33.79"/>
      <polygon class="cls-3" points="533.56 40.06 536.26 45.87 535.41 39.8 533.56 40.06"/>
      <polygon class="cls-3" points="534.48 39.94 537.19 45.73 536.32 39.68 534.48 39.94"/>
      <polygon class="cls-3" points="535.41 39.8 538.09 45.61 537.25 39.54 535.41 39.8"/>
      <polygon class="cls-3" points="536.24 39.13 538.94 44.94 538.09 38.87 536.24 39.13"/>
      <g>
        <polygon class="cls-3" points="554.04 90.07 557.71 84.81 552.89 88.6 554.04 90.07"/>
        <polygon class="cls-3" points="552.65 89.97 556.32 84.73 551.5 88.52 552.65 89.97"/>
        <polygon class="cls-3" points="551.6 89.61 555.27 84.36 550.45 88.16 551.6 89.61"/>
        <polygon class="cls-3" points="551.5 88.52 555.17 83.26 550.35 87.05 551.5 88.52"/>
        <polygon class="cls-3" points="550.07 88.46 553.74 83.22 548.92 86.99 550.07 88.46"/>
        <polygon class="cls-3" points="549.1 88.03 552.77 82.79 547.95 86.56 549.1 88.03"/>
        <polygon class="cls-3" points="548.52 87.29 552.21 82.05 547.39 85.84 548.52 87.29"/>
        <polygon class="cls-3" points="547.61 86.84 551.28 81.6 546.46 85.39 547.61 86.84"/>
        <polygon class="cls-3" points="546.6 86.44 550.27 81.2 545.45 84.99 546.6 86.44"/>
        <polygon class="cls-3" points="547.63 86.14 551.3 80.92 546.48 84.69 547.63 86.14"/>
        <polygon class="cls-3" points="546.46 85.39 550.13 80.13 545.31 83.94 546.46 85.39"/>
        <polygon class="cls-3" points="545.07 85.31 548.74 80.05 543.92 83.84 545.07 85.31"/>
        <polygon class="cls-3" points="544.02 84.95 547.69 79.69 542.87 83.48 544.02 84.95"/>
        <polygon class="cls-3" points="543.7 83.56 547.37 78.29 542.55 82.09 543.7 83.56"/>
        <polygon class="cls-3" points="545.31 83.94 548.98 78.68 544.16 82.47 545.31 83.94"/>
        <polygon class="cls-3" points="543.8 84.65 547.47 79.4 542.65 83.2 543.8 84.65"/>
        <polygon class="cls-3" points="541.88 83.8 545.55 78.56 540.71 82.35 541.88 83.8"/>
        <polygon class="cls-3" points="541.68 82.77 545.35 77.51 540.55 81.32 541.68 82.77"/>
        <polygon class="cls-3" points="541.12 82.03 544.79 76.78 539.97 80.59 541.12 82.03"/>
        <polygon class="cls-3" points="540.15 81.62 543.82 76.36 539 80.15 540.15 81.62"/>
        <polygon class="cls-3" points="539.58 80.88 543.25 75.63 538.44 79.42 539.58 80.88"/>
        <polygon class="cls-3" points="540.47 82.03 544.16 76.78 539.34 80.57 540.47 82.03"/>
        <polygon class="cls-3" points="543.36 83.09 547.03 77.85 542.19 81.64 543.36 83.09"/>
        <polygon class="cls-3" points="555.76 92.25 559.43 87.01 554.61 90.78 555.76 92.25"/>
        <polygon class="cls-3" points="555.19 91.52 558.86 86.28 554.04 90.07 555.19 91.52"/>
        <polygon class="cls-3" points="554.18 91.12 557.85 85.88 553.04 89.67 554.18 91.12"/>
      </g>
    </g>
    <path class="cls-4" d="m438.9,150.41l6.13-6.67s27.16,9.92,28.67,9.7c0,0,10.67-2.8,12.26-3.41l7.12-1.67s-7.06,14.66-6.47,15.22l-19.18,2.72s-8.63-2.76-10.32-1.11l-12.62,1.79-.75-1.69s1.15-14.44-4.84-14.88Z"/>
  </g>
  <g class="cls-1">
    <g>
      <rect class="cls-5" x="495.52" y="306.66" width="86.15" height="307.58"/>
      <g>
        <rect class="cls-6" x="450.05" y="354.9" width="194.94" height="260.82"/>
        <rect class="cls-7" x="363.83" y="271.17" width="164.69" height="344.56"/>
        <rect class="cls-6" x="319.04" y="295.63" width="124.66" height="320.1"/>
        <rect class="cls-3" x="260.54" y="229.84" width="140.55" height="385.88"/>
        <rect class="cls-3" x="15.35" y="340.26" width="150.47" height="275.48"/>
        <rect class="cls-6" x="114.14" y="295.63" width="146.4" height="320.1"/>
        <rect class="cls-7" x="227.53" y="354.9" width="66.02" height="260.82"/>
      </g>
    </g>
  </g>
  <g>
    <path class="cls-3" d="m775.21,153.57c-9.23,0-17.74,1.5-25.59,4.56-7.79,3.06-14.51,7.49-20.08,13.31s-9.95,13.01-13.07,21.58c-3.12,8.57-4.74,18.28-4.74,29.31s1.44,20.5,4.32,28.77c2.88,8.27,6.95,15.17,12.35,20.74,5.33,5.57,11.87,9.71,19.6,12.53,7.73,2.82,16.48,4.26,26.25,4.26,7.01,0,14.21-.54,21.46-1.68,7.31-1.14,14.15-2.76,20.5-4.86v29.25c-6.47,1.86-13.43,3.3-20.92,4.38s-15.23,1.62-23.26,1.62c-15.7,0-29.49-2.22-41.42-6.71s-21.88-10.79-29.85-19c-7.97-8.15-13.97-17.98-18.04-29.37-4.02-11.39-6.05-23.98-6.05-37.76s2.16-27.27,6.47-39.38c4.32-12.11,10.49-22.6,18.58-31.47s18.22-15.82,30.33-20.92c12.17-5.1,25.89-7.67,41.24-7.73,7.85,0,15.28.54,22.3,1.62,7.01,1.08,13.37,2.58,19,4.5v28.83c-7.37-2.34-14.27-3.96-20.62-4.86s-12.65-1.5-18.76-1.5Z"/>
    <path class="cls-3" d="m974.82,246.71c0,10.55-1.56,20.14-4.74,28.83-3.12,8.69-7.67,16.12-13.49,22.3-5.87,6.17-12.95,10.97-21.28,14.33-8.33,3.36-17.62,5.04-27.87,5.04s-19.96-1.68-28.35-5.04c-8.33-3.36-15.46-8.15-21.28-14.33-5.81-6.17-10.25-13.61-13.37-22.3-3.12-8.69-4.62-18.28-4.62-28.83s1.56-20.14,4.74-28.83c3.12-8.69,7.67-16.12,13.49-22.3,5.87-6.17,12.95-10.97,21.28-14.33,8.33-3.36,17.62-5.04,27.87-5.04s19.96,1.68,28.35,5.04c8.33,3.36,15.46,8.15,21.28,14.33s10.25,13.61,13.37,22.3c3.06,8.69,4.62,18.28,4.62,28.83Zm-33.99,0c0-7.13-.84-13.37-2.52-18.82s-3.96-10.01-6.95-13.73c-2.94-3.72-6.53-6.47-10.67-8.33s-8.69-2.76-13.61-2.76-9.29.9-13.37,2.76c-4.14,1.86-7.67,4.62-10.61,8.33s-5.27,8.27-6.95,13.73c-1.68,5.45-2.52,11.75-2.52,18.82s.84,13.37,2.52,18.82c1.68,5.45,4.02,10.01,7.01,13.67s6.53,6.41,10.67,8.33c4.14,1.92,8.63,2.82,13.49,2.82s9.35-.96,13.43-2.82c4.08-1.92,7.55-4.68,10.55-8.33,2.94-3.66,5.27-8.21,6.95-13.67,1.74-5.39,2.58-11.69,2.58-18.82Z"/>
    <path class="cls-3" d="m996.94,249.35c0-11.75,1.62-22.18,4.86-31.41,3.24-9.17,7.67-16.9,13.25-23.14s11.99-10.91,19.18-14.03c7.19-3.12,14.69-4.68,22.48-4.68,3.6,0,7.01.3,10.25.96s6.29,1.56,9.17,2.64c2.88,1.14,5.51,2.34,8.03,3.72,2.52,1.38,4.8,2.82,6.95,4.32h.3c-.12-1.86-.18-4.44-.18-7.85-.06-3.36-.06-7.07-.06-11.03v-55.87h32.85v160.76c0,8.87.12,16.48.3,22.84.18,6.35.36,12.05.54,17.02h-29.67l-1.38-14.27h-.54c-1.92,2.28-4.26,4.56-7.01,6.77-2.7,2.22-5.75,4.14-8.99,5.75-3.3,1.62-6.89,2.88-10.79,3.84-3.96.9-8.21,1.38-12.83,1.38-7.31,0-14.33-1.26-20.98-3.9-6.71-2.58-12.71-6.59-18.04-11.99-5.33-5.39-9.59-12.47-12.77-21.22-3.3-8.51-4.92-18.82-4.92-30.63Zm64.74,41.72c3.24,0,6.29-.42,9.23-1.26s5.63-1.92,8.27-3.3c2.58-1.38,4.86-2.88,6.83-4.56,1.98-1.68,3.66-3.3,5.04-4.86v-63.72c-3.9-3.12-8.21-5.75-13.01-7.85-4.8-2.1-9.89-3.12-15.23-3.12-3.42,0-7.01.72-10.73,2.1-3.72,1.38-7.13,3.72-10.25,7.07-3.12,3.3-5.69,7.97-7.79,13.85-2.1,5.93-3.12,13.43-3.12,22.6,0,13.49,2.64,24.04,7.85,31.59,5.21,7.55,12.83,11.33,22.9,11.45Z"/>
    <path class="cls-3" d="m1231.31,290.77c6.35,0,13.01-.66,19.96-1.92,6.95-1.26,13.97-3.12,21.04-5.51v26.19c-4.26,1.86-10.79,3.6-19.54,5.27-8.75,1.68-17.86,2.52-27.27,2.52s-18.52-1.2-27.09-3.66c-8.57-2.46-16-6.41-22.36-11.87-6.35-5.45-11.45-12.53-15.17-21.22-3.72-8.69-5.63-19.24-5.63-31.59s1.74-22.84,5.27-32.01,8.21-16.72,14.15-22.72c5.93-5.99,12.71-10.49,20.32-13.49,7.61-3,15.52-4.5,23.62-4.5,8.51,0,16.3,1.32,23.5,3.9,7.13,2.58,13.37,6.65,18.58,12.23,5.21,5.51,9.29,12.71,12.17,21.4,2.94,8.75,4.38,19.06,4.38,30.99-.12,4.62-.24,8.57-.42,11.75h-87.99c.48,6.17,1.86,11.51,4.14,15.88,2.34,4.38,5.33,7.97,9.05,10.67,3.72,2.76,8.09,4.74,13.13,5.93,4.98,1.14,10.37,1.74,16.18,1.74Zm-13.13-88.95c-4.14,0-7.85.78-11.09,2.28s-6.05,3.6-8.39,6.23c-2.34,2.64-4.26,5.69-5.63,9.23-1.38,3.54-2.34,7.25-2.76,11.21h52.81c0-3.96-.54-7.73-1.62-11.21-1.08-3.54-2.64-6.59-4.74-9.23-2.1-2.64-4.68-4.74-7.73-6.23-3.12-1.5-6.71-2.28-10.85-2.28Z"/>
    <path class="cls-3" d="m1450.27,139.72c-3.6-.9-7.31-1.68-11.15-2.28-3.84-.6-7.49-.9-10.91-.9-3.72,0-6.95.42-9.83,1.32s-5.27,2.34-7.25,4.38-3.48,4.68-4.5,7.91c-1.02,3.24-1.5,7.19-1.5,11.75v17.62h37.28v27.03h-37.28v107.23h-32.85v-107.23h-22.72v-27.03h22.72v-15.94c0-9.41,1.32-17.5,3.96-24.34,2.64-6.77,6.29-12.41,11.03-16.78s10.25-7.61,16.6-9.71c6.35-2.1,13.31-3.12,20.8-3.12,4.62,0,9.23.42,13.79,1.2,4.56.78,8.51,1.74,11.87,2.82v26.07h-.06Z"/>
    <path class="cls-3" d="m1587.35,246.71c0,10.55-1.56,20.14-4.74,28.83-3.12,8.69-7.67,16.12-13.49,22.3-5.87,6.17-12.95,10.97-21.28,14.33s-17.62,5.04-27.87,5.04-19.96-1.68-28.35-5.04c-8.39-3.36-15.46-8.15-21.28-14.33s-10.25-13.61-13.37-22.3c-3.12-8.69-4.62-18.28-4.62-28.83s1.56-20.14,4.74-28.83c3.12-8.69,7.67-16.12,13.49-22.3,5.87-6.17,12.95-10.97,21.28-14.33,8.33-3.36,17.62-5.04,27.87-5.04s19.96,1.68,28.35,5.04c8.33,3.36,15.46,8.15,21.28,14.33s10.25,13.61,13.37,22.3c3.06,8.69,4.62,18.28,4.62,28.83Zm-33.99,0c0-7.13-.84-13.37-2.52-18.82-1.68-5.45-3.96-10.01-6.95-13.73-2.94-3.72-6.53-6.47-10.67-8.33-4.14-1.86-8.69-2.76-13.61-2.76s-9.29.9-13.37,2.76c-4.14,1.86-7.67,4.62-10.61,8.33s-5.27,8.27-6.95,13.73c-1.68,5.45-2.52,11.75-2.52,18.82s.84,13.37,2.52,18.82,4.02,10.01,7.01,13.67,6.53,6.41,10.67,8.33c4.14,1.92,8.63,2.82,13.49,2.82s9.35-.96,13.43-2.82c4.08-1.92,7.55-4.68,10.55-8.33,2.94-3.66,5.27-8.21,6.95-13.67,1.8-5.39,2.58-11.69,2.58-18.82Z"/>
    <path class="cls-3" d="m1696.27,205.53h-2.76c-10.07,0-18.94,1.5-26.55,4.5-7.61,3-13.49,7.61-17.68,13.79v89.91h-32.85v-134.27h27.15l3.06,18.7h.54c3.9-6.83,9.23-12.23,16-16.12,6.77-3.96,14.93-5.87,24.46-5.87,3.3,0,6.17.18,8.57.54v28.83h.06Z"/>
    <path class="cls-3" d="m1812.25,313.79h-33.93v-185.46h118.08v28.41h-84.1v47.95h71.93v28.41h-71.93v80.68h-.06Z"/>
    <path class="cls-3" d="m2002.99,317.26c-9.71,0-18.4-.96-26.19-2.82-7.73-1.92-14.63-4.62-20.5-8.21-5.93-3.54-10.97-7.91-15.11-13.01-4.14-5.15-7.49-10.91-9.95-17.38-2.04-5.15-3.48-10.91-4.38-17.2-.9-6.29-1.32-13.31-1.32-21.04v-109.21h33.93v106.16c0,13.13,1.56,23.38,4.74,30.75,3.54,8.21,8.63,14.15,15.4,17.8,6.71,3.66,14.69,5.45,23.86,5.45s17.08-1.8,23.86-5.45c6.71-3.66,11.87-9.59,15.4-17.8,3.12-7.37,4.74-17.62,4.74-30.75v-106.16h33.93v109.21c0,7.73-.42,14.75-1.32,21.04-.9,6.29-2.34,11.99-4.38,17.2-2.52,6.47-5.87,12.23-10.07,17.38s-9.35,9.47-15.4,13.01c-6.05,3.54-13.01,6.29-20.86,8.21-7.91,1.86-16.72,2.82-26.37,2.82Z"/>
    <path class="cls-3" d="m2124.91,313.79v-185.46h33.93v84.4h.54l70.01-84.4h42.14l-77.32,91.89,83.68,93.57h-43.52l-74.99-83.68h-.54v83.68h-33.93Z"/>
    <path class="cls-3" d="m2381.03,317.26c-9.71,0-18.4-.96-26.19-2.82-7.73-1.92-14.63-4.62-20.5-8.21-5.93-3.54-10.97-7.91-15.11-13.01-4.14-5.15-7.49-10.91-10.01-17.38-2.04-5.15-3.48-10.91-4.38-17.2-.9-6.29-1.32-13.31-1.32-21.04v-109.21h33.93v106.16c0,13.13,1.56,23.38,4.74,30.75,3.54,8.21,8.63,14.15,15.4,17.8,6.71,3.66,14.69,5.45,23.86,5.45s17.08-1.8,23.86-5.45c6.71-3.66,11.87-9.59,15.4-17.8,3.12-7.37,4.74-17.62,4.74-30.75v-106.16h33.99v109.21c0,7.73-.42,14.75-1.32,21.04-.9,6.29-2.34,11.99-4.38,17.2-2.52,6.47-5.81,12.23-10.07,17.38-4.2,5.15-9.35,9.47-15.4,13.01-6.05,3.54-13.01,6.29-20.86,8.21-7.91,1.86-16.66,2.82-26.37,2.82Z"/>
    <path class="cls-3" d="m2503.01,313.79v-185.46h33.99v185.46h-33.99Z"/>
  </g>
</svg>